<svg id="visual" viewBox="0 0 960 540" width="960" height="540" xmlns="http://www.w3.org/2000/svg" xmlns:xlink="http://www.w3.org/1999/xlink" version="1.1"><rect x="0" y="0" width="960" height="540" fill="#f9fafb"></rect><path d="M0 243L32 246.2C64 249.3 128 255.7 192 249.5C256 243.3 320 224.7 384 218.2C448 211.7 512 217.3 576 228.3C640 239.3 704 255.7 768 254.3C832 253 896 234 928 224.5L960 215L960 541L928 541C896 541 832 541 768 541C704 541 640 541 576 541C512 541 448 541 384 541C320 541 256 541 192 541C128 541 64 541 32 541L0 541Z" fill="#b1563c"></path><path d="M0 339L32 331C64 323 128 307 192 312.7C256 318.3 320 345.7 384 344.7C448 343.7 512 314.3 576 300.3C640 286.3 704 287.7 768 292C832 296.3 896 303.7 928 307.3L960 311L960 541L928 541C896 541 832 541 768 541C704 541 640 541 576 541C512 541 448 541 384 541C320 541 256 541 192 541C128 541 64 541 32 541L0 541Z" fill="#973c5e"></path><path d="M0 462L32 452.2C64 442.3 128 422.7 192 418.5C256 414.3 320 425.7 384 425.8C448 426 512 415 576 417.5C640 420 704 436 768 434.7C832 433.3 896 414.7 928 405.3L960 396L960 541L928 541C896 541 832 541 768 541C704 541 640 541 576 541C512 541 448 541 384 541C320 541 256 541 192 541C128 541 64 541 32 541L0 541Z" fill="#5c3a6e"></path></svg>